<svg width="48" height="48" viewBox="0 0 48 48" xmlns="http://www.w3.org/2000/svg">
  <defs>
    <radialGradient id="faviconBg" cx="50%" cy="50%" r="50%">
      <stop offset="0%" style="stop-color:#F5DEB3;stop-opacity:1" />
      <stop offset="100%" style="stop-color:#DEB887;stop-opacity:1" />
    </radialGradient>
  </defs>
  
  <circle cx="24" cy="24" r="22" fill="url(#faviconBg)" stroke="#8B4513" stroke-width="2"/>
  
  <!-- Simplified Om -->
  <g transform="translate(24, 20)">
    <path d="M-8,-6 C-12,-6 -14,-4 -14,0 C-14,4 -12,6 -8,6 L-4,6 C-2,6 0,4 0,2 L0,-2 C0,-4 -2,-6 -4,-6 L-6,-6 C-7,-6 -8,-5 -8,-4 C-8,-3 -7,-2 -6,-2 L-4,-2 C-3,-2 -2,-3 -2,-4 C-2,-5 -3,-6 -4,-6" 
          fill="#8B4513"/>
    <path d="M2,-4 C6,-4 8,-2 8,2 C8,6 6,8 2,8 C-2,8 -4,6 -4,2 L-4,0 C-4,-2 -2,-4 2,-4 Z" 
          fill="#8B4513"/>
    <circle cx="0" cy="-8" r="1.5" fill="#8B4513"/>
  </g>
  
  <text x="24" y="38" font-family="serif" font-size="8" text-anchor="middle" fill="#8B4513" font-weight="bold">भक्तामर</text>
</svg>