<svg width="1242" height="2436" viewBox="0 0 1242 2436" xmlns="http://www.w3.org/2000/svg">
  <!-- Background -->
  <rect width="1242" height="2436" fill="#f8f6f0"/>
  
  <!-- Gradient background -->
  <defs>
    <radialGradient id="splashGradient" cx="50%" cy="40%" r="60%">
      <stop offset="0%" style="stop-color:#F5DEB3;stop-opacity:0.3" />
      <stop offset="100%" style="stop-color:#f8f6f0;stop-opacity:1" />
    </radialGradient>
    <filter id="textShadow" x="-50%" y="-50%" width="200%" height="200%">
      <feDropShadow dx="2" dy="2" stdDeviation="4" flood-color="#00000020"/>
    </filter>
  </defs>
  
  <rect width="1242" height="2436" fill="url(#splashGradient)"/>
  
  <!-- App Icon (smaller version) -->
  <g transform="translate(621, 800)">
    <circle cx="0" cy="0" r="120" fill="#F5DEB3" stroke="#8B4513" stroke-width="4"/>
    
    <!-- Om Symbol -->
    <g transform="scale(0.8)" filter="url(#textShadow)">
      <path d="M-40,-30 C-60,-30 -70,-20 -70,0 C-70,20 -60,30 -40,30 L-20,30 C-10,30 0,20 0,10 L0,-10 C0,-20 -10,-30 -20,-30 L-30,-30 C-35,-30 -40,-25 -40,-20 C-40,-15 -35,-10 -30,-10 L-20,-10 C-15,-10 -10,-15 -10,-20 C-10,-25 -15,-30 -20,-30" 
            fill="#8B4513"/>
      <path d="M10,-20 C30,-20 40,-10 40,10 C40,30 30,40 10,40 C-10,40 -20,30 -20,10 L-20,0 C-20,-10 -10,-20 10,-20 Z" 
            fill="#8B4513"/>
      <circle cx="0" cy="-40" r="6" fill="#8B4513"/>
      <path d="M-15,-35 C-5,-45 5,-45 15,-35 C20,-30 20,-25 15,-20 C5,-15 -5,-15 -15,-20 C-20,-25 -20,-30 -15,-35 Z" 
            fill="#8B4513"/>
    </g>
  </g>
  
  <!-- App Title -->
  <text x="621" y="1050" font-family="serif" font-size="72" font-weight="bold" text-anchor="middle" fill="#8B4513" filter="url(#textShadow)">
    भक्तामर स्तोत्र
  </text>
  
  <!-- Subtitle -->
  <text x="621" y="1120" font-family="serif" font-size="48" text-anchor="middle" fill="#8B4513" opacity="0.8" filter="url(#textShadow)">
    Bhaktamar Stotra
  </text>
  
  <!-- Tagline -->
  <text x="621" y="1180" font-family="sans-serif" font-size="32" text-anchor="middle" fill="#8B4513" opacity="0.6">
    Sacred Jain Prayer
  </text>
  
  <!-- Decorative elements -->
  <g opacity="0.4">
    <path d="M400,1250 Q500,1220 600,1250 Q700,1220 800,1250" stroke="#8B4513" stroke-width="3" fill="none"/>
    <circle cx="450" cy="1260" r="3" fill="#8B4513"/>
    <circle cx="621" cy="1240" r="4" fill="#8B4513"/>
    <circle cx="792" cy="1260" r="3" fill="#8B4513"/>
  </g>
  
  <!-- Bottom text -->
  <text x="621" y="1900" font-family="sans-serif" font-size="28" text-anchor="middle" fill="#8B4513" opacity="0.5">
    Complete with Sanskrit, Hindi & English
  </text>
  
  <text x="621" y="1940" font-family="sans-serif" font-size="28" text-anchor="middle" fill="#8B4513" opacity="0.5">
    Font Controls • Samputt Reading
  </text>
</svg>